<svg width="846" height="519" viewBox="0 0 846 519" fill="none" xmlns="http://www.w3.org/2000/svg">
<path d="M61.4798 14.4886V223H16.7988V14.4886H61.4798ZM256.878 71.3825V223H212.197V211.085C205.842 216.447 198.892 220.716 191.346 223.894C183.799 227.27 175.856 228.957 167.516 228.957C156.197 228.957 145.473 226.872 135.345 222.702C125.416 218.333 116.778 212.475 109.43 205.128C102.083 197.581 96.2247 188.844 91.8559 178.915C87.6856 168.986 85.6005 158.461 85.6005 147.34C85.6005 136.021 87.7849 125.397 92.1537 115.468C96.5225 105.34 102.381 96.6024 109.728 89.2549C117.274 81.9073 126.012 76.1484 135.941 71.9782C145.87 67.6094 156.395 65.425 167.516 65.425C175.856 65.425 183.799 67.1129 191.346 70.4888C198.892 73.6662 205.842 77.8364 212.197 82.9995V71.3825H256.878ZM172.282 188.745C177.842 188.745 183.104 187.652 188.069 185.468C193.232 183.284 197.7 180.404 201.473 176.83C205.246 173.057 208.225 168.688 210.409 163.723C212.594 158.56 213.686 153.099 213.686 147.34C213.686 141.581 212.594 136.22 210.409 131.255C208.225 126.092 205.246 121.723 201.473 118.149C197.7 114.376 193.232 111.397 188.069 109.212C183.104 107.028 177.842 105.936 172.282 105.936C166.523 105.936 161.062 107.028 155.899 109.212C150.934 111.397 146.565 114.376 142.792 118.149C139.218 121.723 136.338 126.092 134.154 131.255C131.969 136.22 130.877 141.581 130.877 147.34C130.877 153.099 131.969 158.56 134.154 163.723C136.338 168.688 139.218 173.057 142.792 176.83C146.565 180.404 150.934 183.284 155.899 185.468C161.062 187.652 166.523 188.745 172.282 188.745ZM403.138 223.298C398.769 224.887 392.911 226.177 385.564 227.17C378.415 228.362 368.287 228.957 355.181 228.957C348.627 228.957 342.471 227.667 336.712 225.085C331.152 222.702 326.287 219.426 322.117 215.255C317.946 210.886 314.57 205.922 311.989 200.362C309.606 194.603 308.414 188.447 308.414 181.893L308.117 110.106H277.138V71.3825H308.117V23.127H352.798V71.3825H389.734L381.096 110.106H352.798V172.659C352.996 177.028 354.585 180.801 357.564 183.979C360.741 186.957 364.613 188.447 369.181 188.447C376.925 188.447 382.486 187.652 385.861 186.064C389.436 184.276 392.018 182.986 393.606 182.191L403.138 223.298ZM564.278 196.191C556.732 206.319 546.406 214.362 533.3 220.319C520.193 226.078 505.895 228.957 490.406 228.957C479.484 228.957 469.058 226.872 459.129 222.702C449.2 218.333 440.462 212.475 432.916 205.128C425.569 197.581 419.611 188.844 415.044 178.915C410.675 168.986 408.491 158.461 408.491 147.34C408.491 136.021 410.576 125.397 414.746 115.468C419.115 105.34 424.973 96.6024 432.32 89.2549C439.867 81.9073 448.604 76.1484 458.533 71.9782C468.462 67.6094 479.087 65.425 490.406 65.425C506.094 65.425 520.292 68.4037 533.002 74.3612C545.909 80.1201 556.136 87.9641 563.683 97.8932L528.236 122.319C524.86 117.354 519.995 113.383 513.64 110.404C507.484 107.425 499.739 105.936 490.406 105.936C485.243 105.936 480.377 107.028 475.81 109.212C471.441 111.397 467.569 114.376 464.193 118.149C460.817 121.922 458.136 126.39 456.15 131.553C454.363 136.517 453.469 141.78 453.469 147.34C453.469 152.702 454.462 157.865 456.448 162.83C458.434 167.794 461.115 172.262 464.491 176.234C468.065 180.007 472.037 183.085 476.406 185.468C480.973 187.652 485.64 188.745 490.406 188.745C499.342 188.745 506.888 187.354 513.044 184.574C519.2 181.794 523.867 178.22 527.044 173.851L564.278 196.191ZM678.962 65.425C687.898 65.425 696.239 67.1129 703.983 70.4888C711.728 73.8647 718.48 78.5314 724.239 84.4889C730.196 90.2478 734.863 96.9996 738.239 104.744C741.615 112.489 743.303 120.829 743.303 129.766V223H698.622V138.404C698.622 134.035 697.728 129.865 695.941 125.893C694.153 121.922 691.77 118.446 688.792 115.468C685.813 112.489 682.338 110.205 678.366 108.617C674.395 106.829 670.224 105.936 665.856 105.936C661.288 105.936 657.019 106.829 653.047 108.617C649.075 110.404 645.6 112.787 642.621 115.766C639.643 118.744 637.26 122.22 635.472 126.191C633.685 130.163 632.792 134.432 632.792 139V223H588.111V14.4886H632.792V88.6591C638.948 81.7087 645.799 76.1484 653.345 71.9782C661.09 67.6094 669.629 65.425 678.962 65.425ZM801.679 228.957C794.331 228.957 788.076 226.376 782.913 221.213C777.948 216.05 775.466 209.794 775.466 202.447C775.466 195.099 777.948 188.844 782.913 183.681C788.076 178.518 794.331 175.936 801.679 175.936C809.026 175.936 815.282 178.518 820.445 183.681C825.608 188.844 828.189 195.099 828.189 202.447C828.189 209.794 825.608 216.05 820.445 221.213C815.282 226.376 809.026 228.957 801.679 228.957Z" fill="black"/>
<path d="M213.938 358.284H240.102L233.772 385.713H213.938V465.68H182.289V385.713H160.346V358.284H182.289V347.101C182.289 342.459 183.133 338.169 184.821 334.231C186.65 330.151 189.041 326.635 191.995 323.681C195.09 320.586 198.606 318.195 202.545 316.507C206.624 314.679 210.985 313.764 215.626 313.764C225.051 313.764 232.576 314.397 238.203 315.663C243.97 316.789 247.627 317.562 249.174 317.984L242.845 346.89C242.001 346.187 240.242 345.273 237.57 344.147C235.038 343.022 231.029 342.459 225.543 342.459C222.308 342.459 219.565 343.585 217.314 345.835C215.064 347.945 213.938 350.548 213.938 353.642V358.284ZM256.292 358.284H287.941V465.68H256.292V358.284ZM272.117 309.544C277.321 309.544 281.752 311.373 285.409 315.03C289.066 318.687 290.895 323.118 290.895 328.323C290.895 333.527 289.066 337.958 285.409 341.615C281.752 345.273 277.321 347.101 272.117 347.101C266.912 347.101 262.481 345.273 258.824 341.615C255.167 337.958 253.338 333.527 253.338 328.323C253.338 323.118 255.167 318.687 258.824 315.03C262.481 311.373 266.912 309.544 272.117 309.544ZM376.293 354.064C382.623 354.064 388.531 355.26 394.017 357.651C399.502 360.042 404.285 363.348 408.364 367.568C412.584 371.647 415.89 376.429 418.281 381.915C420.672 387.401 421.868 393.309 421.868 399.639V465.68H390.219V405.758C390.219 402.663 389.586 399.709 388.32 396.896C387.054 394.083 385.366 391.621 383.256 389.511C381.146 387.401 378.684 385.783 375.871 384.658C373.058 383.392 370.104 382.759 367.009 382.759C363.774 382.759 360.75 383.392 357.937 384.658C355.123 385.924 352.662 387.612 350.552 389.722C348.442 391.832 346.754 394.294 345.488 397.107C344.222 399.92 343.589 402.944 343.589 406.179V465.68H311.94V358.284H343.589V370.522C347.95 365.598 352.802 361.66 358.148 358.706C363.633 355.611 369.682 354.064 376.293 354.064ZM560.279 317.984V465.68H528.63V457.24C523.989 461.038 518.995 464.062 513.65 466.313C508.305 468.704 502.678 469.9 496.77 469.9C488.753 469.9 481.227 468.423 474.194 465.469C467.161 462.374 461.042 458.225 455.838 453.02C450.633 447.675 446.484 441.486 443.389 434.453C440.435 427.42 438.958 419.964 438.958 412.087C438.958 404.07 440.435 396.544 443.389 389.511C446.484 382.337 450.633 376.148 455.838 370.944C461.183 365.739 467.372 361.66 474.405 358.706C481.438 355.611 488.893 354.064 496.77 354.064C502.678 354.064 508.305 355.26 513.65 357.651C519.136 359.902 524.129 362.855 528.63 366.513V317.984H560.279ZM500.146 441.415C504.226 441.415 508.023 440.642 511.54 439.094C515.197 437.547 518.292 435.508 520.824 432.976C523.496 430.303 525.606 427.209 527.153 423.692C528.701 420.035 529.474 416.167 529.474 412.087C529.474 408.008 528.701 404.21 527.153 400.694C525.606 397.036 523.496 393.942 520.824 391.41C518.292 388.737 515.197 386.627 511.54 385.08C508.023 383.533 504.226 382.759 500.146 382.759C496.067 382.759 492.199 383.533 488.542 385.08C485.025 386.627 481.931 388.737 479.258 391.41C476.726 393.942 474.686 397.036 473.139 400.694C471.592 404.21 470.818 408.008 470.818 412.087C470.818 416.167 471.592 420.035 473.139 423.692C474.686 427.209 476.726 430.303 479.258 432.976C481.931 435.508 485.025 437.547 488.542 439.094C492.199 440.642 496.067 441.415 500.146 441.415ZM635.397 397.951C640.601 399.217 645.946 400.694 651.432 402.382C656.918 404.07 661.841 406.32 666.202 409.133C670.703 411.947 674.36 415.463 677.173 419.683C680.127 423.762 681.604 428.896 681.604 435.086C681.604 441.697 679.986 447.253 676.751 451.754C673.516 456.115 669.437 459.702 664.514 462.515C659.59 465.187 654.105 467.086 648.056 468.212C642.148 469.337 636.381 469.9 630.755 469.9C619.783 469.9 610.007 467.438 601.427 462.515C592.987 457.451 585.813 450.347 579.905 441.204L607.334 426.646C610.148 431.428 613.805 435.086 618.306 437.618C622.948 440.009 627.519 441.204 632.021 441.204C638.491 441.204 643.133 440.712 645.946 439.727C648.9 438.743 650.377 437.407 650.377 435.719C650.377 434.312 649.392 433.116 647.423 432.132C645.595 431.006 643.414 430.022 640.882 429.178C638.491 428.334 636.1 427.701 633.709 427.279C631.317 426.716 629.629 426.365 628.645 426.224C623.581 425.239 618.447 423.973 613.242 422.426C608.038 420.738 603.325 418.558 599.106 415.885C594.886 413.072 591.369 409.696 588.556 405.758C585.883 401.678 584.547 396.685 584.547 390.777C584.547 384.728 585.813 379.454 588.345 374.952C591.018 370.311 594.464 366.442 598.684 363.348C602.903 360.253 607.686 357.932 613.031 356.385C618.517 354.838 624.073 354.064 629.7 354.064C639.968 354.064 649.392 356.455 657.973 361.238C666.694 366.02 674.008 372.561 679.916 380.86L654.386 396.896C651.291 391.973 647.564 388.386 643.203 386.135C638.983 383.885 634.834 382.759 630.755 382.759C626.113 382.759 622.456 383.392 619.783 384.658C617.11 385.924 615.774 387.542 615.774 389.511C615.774 390.355 616.407 391.199 617.673 392.043C618.939 392.746 620.486 393.52 622.315 394.364C624.284 395.067 626.394 395.77 628.645 396.474C631.036 397.036 633.287 397.529 635.397 397.951Z" fill="black"/>
</svg>
